<svg xmlns="http://www.w3.org/2000/svg" width="512" height="512" viewBox="0 0 512 512">
  <rect width="512" height="512" fill="#F7F7F7"/>
  <rect x="32" y="42" width="397" height="379" rx="28" fill="#FFFFFF" stroke="#303756" stroke-width="18" stroke-linejoin="round"/>
  <rect x="86" y="21" width="50" height="74" rx="24" fill="#303756"/>
  <rect x="102" y="34" width="18" height="40" rx="9" fill="#FFFFFF"/>
  <rect x="299" y="21" width="50" height="74" rx="24" fill="#303756"/>
  <rect x="315" y="34" width="18" height="40" rx="9" fill="#FFFFFF"/>
  <rect x="42" y="64" width="377" height="63" rx="18" fill="#2B98F5"/>
  <rect x="42" y="128" width="377" height="18" fill="#303756"/>
  <g fill="#303756">
    <rect x="86" y="194" width="63" height="63" rx="10"/>
    <rect x="186" y="194" width="63" height="63" rx="10"/>
    <rect x="286" y="194" width="63" height="63" rx="10"/>
    <rect x="86" y="299" width="63" height="63" rx="10"/>
    <rect x="186" y="299" width="63" height="63" rx="10"/>
  </g>
  <g fill="#FFFFFF">
    <rect x="105" y="213" width="25" height="25"/>
    <rect x="205" y="213" width="25" height="25"/>
    <rect x="305" y="213" width="25" height="25"/>
    <rect x="105" y="318" width="25" height="25"/>
    <rect x="205" y="318" width="25" height="25"/>
  </g>
  <circle cx="384" cy="384" r="85" fill="#2B98F5" stroke="#303756" stroke-width="18"/>
  <path d="M384 337 L384 382 L405 404" fill="none" stroke="#303756" stroke-width="18" stroke-linecap="round" stroke-linejoin="round"/>
</svg>
